:SAMPLES-PER-SECOND 30
:FULLY-SPECIFIED
:DEGREES
254
root  -25.6247 29.7036 15.8122 23.6261 39.2271 6.22182
RightUpLeg  -72.3073 16.4622 -21.3904
RightLeg  49.8779 4.36611 4.49355
RightFoot  22.4211 -0.331958 2.05226
RightToes  -43.5212 -0.247205 -0.334137
Spine  20.2018 -0.596828 6.5412
Spine1  36.779 -2.00842 8.77823
HEad  -0.356695 -31.7318 35.1251
LeftShoulder1  0 -2.42657e-020 -4.95415e-022
LeftArm  -2.26269 -15.492 -92.5629
LeftForeArm  37.7771 -61.1716 -18.7625
LeftHand  -0.568389 -9.95929 6.15073
RightShoulder  0 2.42657e-020 1.07489e-018
RightArm  -40.303 18.4248 67.98
RightForeArm  53.3609 36.9848 7.60023
RightHand  -5.25992 21.8895 -26.361
LeftUpLeg  -54.2909 -22.3972 16.4425
LeftLeg  54.5178 -8.17632 -9.91263
LeftFoot  -9.08247 0.107512 1.35355
LeftToes  -39.2425 1.71452e-006 7.46813e-008
255
root  -25.3697 29.3465 14.3341 23.9583 30.4306 4.02283
RightUpLeg  -76.5508 14.4461 -13.7913
RightLeg  51.6256 3.28969 3.58853
RightFoot  24.0785 -0.2008 1.31901
RightToes  -41.8985 -0.233824 -0.325593
Spine  20.5584 0.607557 5.73021
Spine1  37.5058 1.63948 5.64755
HEad  -2.32918 -31.3114 37.5841
LeftShoulder1  0 -2.42657e-020 -4.95415e-022
LeftArm  -2.92715 -15.2957 -88.1848
LeftForeArm  41.6301 -64.5436 -21.8487
LeftHand  -0.668089 -9.66326 7.52672
RightShoulder  0 2.42657e-020 1.07489e-018
RightArm  -37.788 24.7688 66.8641
RightForeArm  72.3103 24.5578 4.53758
RightHand  -6.59523 26.2238 -27.4243
LeftUpLeg  -58.5013 -19.541 18.7501
LeftLeg  58.7574 -8.93143 -12.5453
LeftFoot  -8.95099 0.12568 1.60558
LeftToes  -44.42 1.71452e-006 7.46813e-008
256
root  -25.0961 28.6801 12.8471 25.7968 23.149 3.59839
RightUpLeg  -80.9632 12.8242 -8.42696
RightLeg  60.097 3.56601 5.26446
RightFoot  11.0381 -0.0145569 0.52817
RightToes  -37.631 -0.199841 -0.301353
Spine  20.3467 1.08047 4.5429
Spine1  36.5712 3.32483 3.42374
HEad  -6.54 -30.4642 42.2015
LeftShoulder1  0 -2.42657e-020 -4.95415e-022
LeftArm  -2.86338 -16.14 -81.846
LeftForeArm  41.1789 -65.2262 -22.5789
LeftHand  -0.228509 -5.63418 4.27659
RightShoulder  0 2.42657e-020 1.07489e-018
RightArm  -41.8871 27.3736 67.8871
RightForeArm  67.5957 18.6009 3.33375
RightHand  -4.88842 29.4255 -18.1001
LeftUpLeg  -63.6087 -17.3366 22.0674
LeftLeg  62.2951 -9.82445 -15.6363
LeftFoot  -10.0682 0.201166 2.28338
LeftToes  -46.6213 1.71452e-006 7.46813e-008
257
root  -24.7132 27.5528 11.4819 26.678 16.9949 3.80673
RightUpLeg  -84.4952 12.2484 -6.3916
RightLeg  73.2508 1.56724 3.98619
RightFoot  1.5942 0.0127035 -0.535265
RightToes  -37.362 -0.19776 -0.29974
Spine  20.1809 0.846513 3.12974
Spine1  35.5403 2.81582 2.25638
HEad  -11.546 -29.6105 47.7062
LeftShoulder1  0 -2.42657e-020 -4.95415e-022
LeftArm  -3.64083 -18.5535 -74.5976
LeftForeArm  38.8044 -62.5182 -19.904
LeftHand  0.00893296 -2.38005 -0.802304
RightShoulder  0 2.42657e-020 1.07489e-018
RightArm  -53.564 27.9222 69.8631
RightForeArm  59.5117 15.8986 2.83138
RightHand  -2.90008 27.5243 -11.4339
LeftUpLeg  -67.1314 -17.5766 26.9585
LeftLeg  63.8714 -4.16328 -7.23364
LeftFoot  -12.6043 0.0649559 0.588147
LeftToes  -41.4817 1.71452e-006 7.46813e-008
258
root  -24.258 25.9949 10.4121 26.0295 9.9837 3.47498
RightUpLeg  -85.8686 11.0546 -4.2839
RightLeg  87.3599 -0.139809 -2.21902
RightFoot  -6.86533 -0.0423172 -0.327962
RightToes  -32.22 -0.159503 -0.267096
Spine  20.243 0.703887 1.33737
Spine1  34.9573 1.84119 1.71104
HEad  -15.0482 -29.7878 51.4483
LeftShoulder1  0 -2.42657e-020 -4.95415e-022
LeftArm  -5.09754 -21.4485 -66.997
LeftForeArm  35.8201 -56.4557 -15.4706
LeftHand  0.0274025 -5.54212 -0.937266
RightShoulder  0 2.42657e-020 1.07489e-018
RightArm  -58.4467 26.8698 70.7028
RightForeArm  50.4097 15.795 2.82974
RightHand  -1.59644 23.0422 -7.45234
LeftUpLeg  -64.5024 -16.2006 29.8761
LeftLeg  62.5481 -3.61793 -5.97543
LeftFoot  -21.7386 0.256222 1.33432
LeftToes  -52.2522 1.71452e-006 7.46813e-008
259
root  -23.8418 24.3763 9.40087 25.3012 5.29602 5.1095
RightUpLeg  -86.0282 5.35739 -4.96303
RightLeg  99.4491 1.0445 -8.94318
RightFoot  -14.7233 0.210494 2.00679
RightToes  -20.9684 -0.0869224 -0.184562
Spine  20.773 -0.974792 -0.413852
Spine1  35.3196 -2.47158 1.4195
HEad  -16.8998 -29.7188 50.925
LeftShoulder1  0 -2.42657e-020 -4.95415e-022
LeftArm  -8.63629 -23.9225 -60.2933
LeftForeArm  33.2182 -48.9978 -11.7202
LeftHand  -0.268667 -10.7238 2.49357
RightShoulder  0 2.42657e-020 1.07489e-018
RightArm  -61.1211 27.9003 70.0018
RightForeArm  49.4171 14.4857 2.58409
RightHand  -1.72004 23.8261 -7.77188
LeftUpLeg  -68.4327 -11.6191 25.9566
LeftLeg  72.5119 -2.96826 -7.63369
LeftFoot  -22.8095 0.328769 1.6297
LeftToes  -55.8998 1.71452e-006 7.46813e-008
260
root  -23.8315 22.8583 8.56793 24.0638 0.905945 4.54855
RightUpLeg  -85.3811 0.757421 -7.3799
RightLeg  106.993 2.17449 -8.47169
RightFoot  -21.0652 0.584323 3.51965
RightToes  -17.0043 -0.065396 -0.15231
Spine  22.3563 -1.73782 -1.34159
Spine1  37.3087 -5.66299 3.50802
HEad  -20.1992 -28.8302 51.1732
LeftShoulder1  0 -2.42657e-020 -4.95415e-022
LeftArm  -12.1087 -30.6244 -57.1421
LeftForeArm  27.0566 -36.9907 -7.63119
LeftHand  0.128244 -12.4678 -1.5448
RightShoulder  0 2.42657e-020 1.07489e-018
RightArm  -63.5082 30.4365 65.262
RightForeArm  47.0236 13.6074 2.42376
RightHand  -1.41678 23.3148 -6.49095
LeftUpLeg  -69.8391 -6.2492 25.3785
LeftLeg  78.9478 -2.59866 -9.80795
LeftFoot  -26.0405 0.58349 2.52291
LeftToes  -57.8564 1.71452e-006 7.46813e-008
